<svg height="48pt" viewBox="0 0 48 48" width="48pt" xmlns="http://www.w3.org/2000/svg" xmlns:xlink="http://www.w3.org/1999/xlink"><linearGradient id="a" gradientTransform="matrix(44 0 0 45.475 2 .525)" gradientUnits="userSpaceOnUse" x1=".21875" x2="1.09899" y1=".17506" y2="1.118159"><stop offset="0" stop-color="#fccb90"/><stop offset=".83913043478" stop-color="#d57eeb"/></linearGradient><path d="m42 26c0-1.104.896-2 2-2 1.104 0 2 .896 2 2v15c0 2.76-2.24 5-5 5h-34c-2.76 0-5-2.24-5-5v-15c0-1.104.896-2 2-2 1.104 0 2 .896 2 2v13c0 1.656 1.344 3 3 3h30c1.656 0 3-1.344 3-3zm-7-9.945 6-.085c.552 0 1 .396 1 .883v.847c0 .488-.339 1.142-.756 1.461l-14.977 11.457c-1.251.957-3.283.957-4.534 0l-14.977-11.457c-.417-.319-.756-.973-.756-1.461v-.847c0-.487.448-.883 1-.883h6c1.104 0 2-.791 2-1.765 0-.974-.896-1.765-2-1.765h-9c-1.104 0-2 .791-2 1.765v4.449c0 .974.687 2.272 1.534 2.897l16.631 12.277c2.116 1.563 5.554 1.563 7.67 0l16.631-12.277c.847-.625 1.534-1.923 1.534-2.897v-4.449c0-.974-.896-1.765-2-1.765h-9c-1.104 0-2 .816-2 1.822 0 1.005.896 1.809 2 1.793zm-9.884 5.184c0 .616.499 1.116 1.115 1.116.616 0 1.116-.5 1.116-1.116v-.949c0-.616-.5-1.116-1.116-1.116-.616 0-1.115.5-1.115 1.116zm0-5.155c0 .615.499 1.115 1.115 1.115.616 0 1.116-.5 1.116-1.115v-4.835h3.808c2.052 0 2.618-1.251 1.262-2.792l-5.961-6.776c-1.355-1.541-3.557-1.541-4.912 0l-5.961 6.776c-1.356 1.541-.79 2.792 1.262 2.792h3.808v9.99c0 .616.5 1.116 1.116 1.116.616 0 1.115-.5 1.115-1.116v-12.221h-3.629c-.41 0-.538-.262-.284-.584l4.569-5.807c.254-.323.666-.323.92 0l4.569 5.807c.254.322.126.584-.284.584h-3.629z" fill="url(#a)" fill-rule="evenodd"/></svg>